<svg id="svg" xmlns="http://www.w3.org/2000/svg" viewBox="0 0 159.99 195.21"><defs><style>.cls-1{fill:#b0fd99;}.cls-1,.cls-2,.cls-3,.cls-4,.cls-5{fill-rule:evenodd;}.cls-3{fill:#fff;}.cls-4{fill:#fffaea;}.cls-5{fill:#099432;}</style></defs><path class="cls-1" d="M154.93,9.87c2.64,13,11.1,77.87,12.54,96.25.53,6.74,3.19,29.37,5,42.64.43,3.15.2,3.72-1.75,4.2-2.61.64-25.72,2.76-61.74,5.64-14,1.12-32.8,2.8-41.72,3.73s-16.51,1.39-16.87,1S48,148.85,45.9,131.92,40.69,91.44,39,79.62s-4.13-30.5-5.53-41.5-2.76-21-3-22.15.09-2.36,1-2.69c1.56-.6,19.93-1.85,61.06-4.17,33.66-1.89,57.87-3.6,58.42-4.1,1.59-1.49,3.08.31,4,4.86" transform="translate(-16.01 -1.82)"/><path class="cls-2" d="M66.28,7.16C51.87,8,37,9,33.28,9.56c-6.16.86-7.12,1.32-10.45,5C18.79,19.11,16,26,16,31.55c0,2,.9,10.32,2,18.57,2,14.95,3.64,28.34,6.54,53C29.41,144.56,36,185.37,38.1,186.74c.77.5,3.59.82,6.26.7l4.86-.22,1.64,4.95c.9,2.72,2.09,4.91,2.64,4.86s1.9-1.74,3-3.75,2.32-3.66,2.72-3.66a30.45,30.45,0,0,1,5.44,3c2.6,1.65,5.15,3,5.66,3s.72-2.46.47-5.5-.41-5.5-.35-5.5l8.09-1c4.38-.53,24.84-2.59,45.46-4.56,29.94-2.86,37.86-3.92,39.32-5.24s1.78-2.89,1.51-8.93c-.34-7.85-.07-8.29,5.19-8.29,3,0,6-2.22,6-4.38,0-.68-.88-8.41-2-17.18s-2.65-23.2-3.49-32.06C168,75.71,159.41,12.9,157.21,5.12c-.76-2.69-1.31-3-5.31-3.3M147,2m8,7.88c2.64,13,11.1,77.87,12.54,96.25.53,6.74,3.19,29.37,5,42.64.43,3.15.2,3.72-1.75,4.2-2.61.64-25.72,2.76-61.74,5.64-14,1.12-32.8,2.8-41.72,3.73s-16.51,1.39-16.87,1S48,148.85,45.9,131.92,40.69,91.44,39,79.62s-4.13-30.5-5.53-41.5-2.76-21-3-22.15.09-2.36,1-2.69c1.56-.6,19.93-1.85,61.06-4.17,33.66-1.89,57.87-3.6,58.42-4.1,1.59-1.49,3.08.31,4,4.86m-9.49,3.85c-.38.61-1.91.85-3.41.55-6-1.19-6.78,4.56-1.38,9.8,4.4,4.27,5.85,4.42,7.7.8,2.5-4.89,2.92-8.84,1.13-10.63s-3.1-2.05-4-.52M32.52,60.62c.87,6.32,2.46,17.57,3.51,25s2.85,21.15,4,30.5,2.53,20.34,3.13,24.43,1.43,11.23,1.85,15.87l.77,8.44-3.62,4.89-3.62,4.88-.65-3.76c-3.31-19.3-7.46-48.64-9.85-69.75-1.12-9.9-2.69-23.18-3.48-29.5s-1.71-14-2.05-17-1.28-9.48-2.09-14.34c-1.64-9.86-1.18-12.67,3.44-20.66l2.6-4.5,2.26,17c1.24,9.35,3,22.17,3.84,28.5M142,17.62a1,1,0,1,1-1-1,1,1,0,0,1,1,1M124,68.29c-6.93,3.57-10,8.45-10,16.12,0,7.22,2.77,12.42,8.48,15.76,6.74,4,10.93,4.14,17.5.77,7.35-3.77,10.12-8.66,10.12-17.85,0-6,.22-6.65,2.34-7.46,2.46-.93,4.1-2.79,3.23-3.65-.28-.28-2,.24-3.73,1.16-4.08,2.11-6,.17-2.62-2.65,1.58-1.32,1.76-1.81.66-1.82a6.32,6.32,0,0,0-2.91.87c-1,.6-2.3.25-4.07-1.07-1.52-1.12-5-2.18-8.09-2.48-4.61-.45-6.25-.1-10.93,2.3M65.31,73.44a26.78,26.78,0,0,0-7,4.33c-2.1,2-3.31,2.42-4.81,1.81-2.77-1.14-3.5-1.12-3.5.06,0,.56,1.12,1.53,2.5,2.16,3.84,1.75,3,3.15-1.5,2.55-2.2-.3-4.22-.18-4.49.26-.63,1,1.91,2,5.07,2,2.2,0,2.42.4,2.42,4.53,0,9.08,4.94,15.17,14.18,17.49,8.52,2.15,16.08-1.77,20.39-10.57,3.38-6.92,3-12.74-1.24-18.81-5.1-7.33-13.11-9.45-22-5.82m70.94.91c2.62,2.36,2.34,8.74-.47,10.71-4.9,3.43-11.78,0-11.78-5.82,0-6.94,6.91-9.7,12.25-4.89M76.19,79.47a10.4,10.4,0,0,1,2.32,4.24c.83,3.42-3.59,8.91-7.18,8.91-2.91,0-8.34-5-8.32-7.67a7.68,7.68,0,0,1,13.18-5.48m61.66,13a2.82,2.82,0,0,1,1,2.74c-.46,2.44-5.59,3.19-6.45,1-1.39-3.62,2-5.89,5.46-3.69m-61,5.32c2.84,2.83.11,7.11-3.87,6.07-2.61-.68-3.23-3.28-1.3-5.42s3.48-2.34,5.17-.65M103,105c-9.75,1.51-10.4,1.93-8.53,5.54,5.51,10.65,18.08,10.46,20.5-.31,1.59-7.07,1.15-7.26-12-5.23m10,2.15c0,1.22-3,6.18-4.42,7.38a4.63,4.63,0,0,1-3.82.67c-2.87-.79-8.39-5.3-7.54-6.16,1.19-1.18,15.78-2.93,15.78-1.89m42.24,55.17c-.53,5,1.8,4.34-26.24,7.29-10.72,1.13-25.12,2.69-32,3.47s-16.26,1.73-20.85,2.11c-7.84.64-8.33.57-8-1.2.31-1.58,1.67-2,8.31-2.68,7.63-.76,9.37-1.2,8.43-2.15-.25-.24-6.51.21-13.92,1s-16.39,1.43-20,1.44c-6.41,0-6.45,0-4.5-1.92,2.29-2.23,14-3.73,56-7.13,14.3-1.16,32.07-2.65,39.5-3.31s13.54-1.19,13.59-1.17-.11,1.94-.35,4.26m6.14-1.6c1,5.18.71,10.91-.63,11.36-.69.23-13.4,1.56-28.25,3-39.11,3.69-57.61,5.57-60.84,6.2-2.38.47-2.79.25-2.49-1.29s1.64-2,6.84-2.53c33.91-3.57,74.29-7.95,77.66-8.43,4.06-.58,4.16-.68,3.64-3.86s1-7.53,2.6-7.53c.46,0,1.12,1.4,1.47,3.12M67.25,181.63c2.37,11.35,2.2,11.78-3.25,8.08a29.58,29.58,0,0,0-5.17-3.07c-.37,0-1.7,1.64-2.95,3.68L53.59,194l-1.67-5.63a90.18,90.18,0,0,1-2.35-10.15l-.68-4.53,6.81-.36c3.74-.2,7.47-.32,8.29-.28,1,.05,2,2.6,3.26,8.56m-20.43-5.18c.27,1.82-.17,2.17-2.75,2.17-3.42,0-3.87-1.06-1.45-3.47,2-2.05,3.79-1.51,4.2,1.3m1.5,5.57c.57,1.47-2,2.56-6.07,2.58-2.13,0-3-1.87-1.58-3.31,1.25-1.25,7.11-.69,7.65.73" transform="translate(-16.01 -1.82)"/><path class="cls-3" d="M142,16.4a1,1,0,1,1-1-1,1,1,0,0,1,1,1" transform="translate(-16.01 -1.82)"/><path class="cls-3" d="M136.25,74.35c2.62,2.36,2.34,8.74-.47,10.71-4.9,3.43-11.78,0-11.78-5.82,0-6.94,6.91-9.7,12.25-4.89" transform="translate(-16.01 -1.82)"/><path class="cls-3" d="M76.19,79.47a10.4,10.4,0,0,1,2.32,4.24c.83,3.42-3.59,8.91-7.18,8.91-2.91,0-8.34-5-8.32-7.67a7.68,7.68,0,0,1,13.18-5.48" transform="translate(-16.01 -1.82)"/><path class="cls-3" d="M137.85,92.5a2.82,2.82,0,0,1,1,2.74c-.46,2.44-5.59,3.19-6.45,1-1.39-3.62,2-5.89,5.46-3.69" transform="translate(-16.01 -1.82)"/><path class="cls-3" d="M76.8,97.82c2.84,2.83.11,7.11-3.87,6.07-2.61-.68-3.23-3.28-1.3-5.42s3.48-2.34,5.17-.65" transform="translate(-16.01 -1.82)"/><path class="cls-4" d="M113,107.17c0,1.22-3,6.18-4.42,7.38a4.63,4.63,0,0,1-3.82.67c-2.87-.79-8.39-5.3-7.54-6.16,1.19-1.18,15.78-2.93,15.78-1.89" transform="translate(-16.01 -1.82)"/><path class="cls-1" d="M32.52,60.62c.87,6.32,2.46,17.57,3.51,25s2.85,21.15,4,30.5,2.53,20.34,3.13,24.43,1.43,11.23,1.85,15.87l.77,8.44-3.62,4.89-3.62,4.88-.65-3.76c-3.31-19.3-7.46-48.64-9.85-69.75-1.12-9.9-2.69-23.18-3.48-29.5s-1.71-14-2.05-17-1.28-9.48-2.09-14.34c-1.64-9.86-1.18-12.67,3.44-20.66l2.6-4.5,2.26,17c1.24,9.35,3,22.17,3.84,28.5" transform="translate(-16.01 -1.82)"/><path class="cls-1" d="M161.38,160.74c1,5.18.71,10.91-.63,11.36-.69.23-13.4,1.56-28.25,3-39.11,3.69-57.61,5.57-60.84,6.2-2.38.47-2.79.25-2.49-1.29s1.64-2,6.84-2.53c33.91-3.57,74.29-7.95,77.66-8.43,4.06-.58,4.16-.68,3.64-3.86s1-7.53,2.6-7.53c.46,0,1.12,1.4,1.47,3.12" transform="translate(-16.01 -1.82)"/><path class="cls-1" d="M48.32,182c.57,1.47-2,2.56-6.07,2.58-2.13,0-3-1.87-1.58-3.31,1.25-1.25,7.11-.69,7.65.73" transform="translate(-16.01 -1.82)"/><path class="cls-5" d="M67.25,181.63c2.37,11.35,2.2,11.78-3.25,8.08a29.58,29.58,0,0,0-5.17-3.07c-.37,0-1.7,1.64-2.95,3.68L53.59,194l-1.67-5.63a90.18,90.18,0,0,1-2.35-10.15l-.68-4.53,6.81-.36c3.74-.2,7.47-.32,8.29-.28,1,.05,2,2.6,3.26,8.56" transform="translate(-16.01 -1.82)"/></svg>