<?xml version="1.0" encoding="utf-8"?>
<!-- Generator: Adobe Illustrator 24.3.0, SVG Export Plug-In . SVG Version: 6.00 Build 0)  -->
<svg version="1.1" id="Layer_1" xmlns="http://www.w3.org/2000/svg" xmlns:xlink="http://www.w3.org/1999/xlink" x="0px" y="0px"
	 viewBox="0 0 42 42" style="enable-background:new 0 0 42 42;" xml:space="preserve">
<style type="text/css">
	.st0{fill:#45A501;}
	.st1{fill:#58CC02;}
	.st2{fill:#EBE1BE;}
	.st3{fill:#FEFADA;}
	.st4{fill:#32555B;}
</style>
<path class="st0" d="M14.5,32.3C14.4,32.3,14.4,32.3,14.5,32.3c0-0.2,0-0.3,0-0.4c0-9.3,0-18.6,0-27.9c0-0.1,0-0.2,0-0.3
	c1.7,0,3.5,0,5.2,0c0,7.9,0,15.7,0,23.6c0.1,0,0.2,0,0.3,0c3.2,0,6.3,0,9.5,0c0.3,0,0.6-0.1,0.9-0.2c1.6-0.9,3-2.1,4.3-3.4
	c0.3-0.3,0.5-0.5,0.8-0.8c0,0,0,0,0.1,0c0,3.2,0,6.3,0,9.5c-0.1,0-0.2,0.1-0.3,0.1"/>
<path class="st1" d="M14.4,3.7c0,0.1,0,0.2,0,0.3c0,9.3,0,18.6,0,27.9c0,0.1,0,0.4,0,0.4c-1.5,0-3.1,0-4.6,0c-0.4,0-0.7,0.1-1.1,0.3
	c-0.4,0.3-0.6,0.6-0.8,1c0-0.3,0-0.7,0-1c0-7.3,0-14.6,0-22c0-2.4,0-4.7,0-7.1C10,3.7,12.2,3.7,14.4,3.7z"/>
<path class="st0" d="M35.3,37.5c-0.5,0-0.9,0-1.4,0c-7,0-14.1,0-21.1,0c-0.3,0-0.4,0.1-0.6,0.3c-0.3,0.3-0.7,0.5-1.1,0.5
	c-0.9,0-1.8,0.1-2.7,0c-0.9-0.1-1.6-0.6-1.8-1.6c-0.1-0.2-0.1-0.5-0.1-0.7c0-10.6,0-21.1,0-31.7c0-0.1,0-0.2,0-0.4
	c0-0.2,0.1-0.2,0.2-0.2c0.3,0,0.7,0,1.1,0c0,2.4,0,4.7,0,7.1c0,7.3,0,14.6,0,22c0,0.3,0,0.6,0,1c0,0.1,0,0.2,0,0.3
	c-0.1,2.1,1.9,3.5,3.8,2.7c0.2-0.1,0.3-0.1,0.5-0.1c7.3,0,14.7,0,22,0c0.1,0,0.2,0,0.3,0c0-0.2,0-0.4,0-0.6c0.2,0.2,0.6,0.3,0.7,0.6
	C35.4,36.9,35.4,37.2,35.3,37.5z"/>
<path class="st2" d="M34.6,36.1c0,0.2,0,0.4,0,0.6c-0.1,0-0.2,0-0.3,0c-7.3,0-14.7,0-22,0c-0.2,0-0.4,0-0.5,0.1
	c-1.9,0.8-3.9-0.7-3.8-2.7c0-0.1,0-0.2,0-0.3c0.2-0.4,0.4-0.8,0.8-1c0.3-0.2,0.7-0.3,1.1-0.3c1.5,0,3,0,4.6,0c0,0,0,0,0.1,0
	c2.8,0,5.5,0,8.3,0c4,0,7.9,0,11.9,0c0,0.3,0,0.5,0,0.8c-8.4,0-16.7,0-25.1,0c-0.1,0-0.2,0-0.3,0c-0.1,0-0.1,0.1-0.1,0.2
	c0,0.1,0.1,0.1,0.1,0.2c0.1,0,0.2,0,0.2,0c2.6,0,5.1,0,7.7,0c5.8,0,11.7,0,17.5,0c0,0.1,0,0.3,0,0.5c-8.4,0-16.7,0-25.1,0
	c-0.1,0-0.2,0-0.3,0c-0.1,0-0.1,0-0.1,0.1c-0.2,0.3,0,0.6,0.4,0.6c3,0,5.9,0,8.9,0c5.4,0,10.8,0,16.2,0c0,0.1,0,0.1-0.1,0.2
	c-8.4,0-16.8,0-25.2,0c-0.1,0-0.1,0-0.2,0c-0.1,0-0.2,0.1-0.2,0.2c-0.1,0.5,0,0.5,0.4,0.5c4.9,0,9.7,0,14.6,0c3.5,0,7,0,10.6,0
	C34.6,35.8,34.6,35.9,34.6,36.1z"/>
<path class="st3" d="M34.6,34.7c-5.4,0-10.8,0-16.3,0c-3,0-5.9,0-8.9,0c-0.4,0-0.5-0.3-0.4-0.6c0,0,0.1-0.1,0.1-0.1
	c0.1,0,0.2,0,0.3,0c8.4,0,16.7,0,25.1,0C34.6,34.3,34.6,34.5,34.6,34.7z"/>
<path class="st3" d="M34.6,35.7c-3.5,0-7,0-10.6,0c-4.9,0-9.7,0-14.6,0c-0.5,0-0.5-0.1-0.4-0.5c0-0.1,0.1-0.1,0.2-0.2
	c0,0,0.1,0,0.2,0c8.4,0,16.7,0,25.1,0C34.6,35.2,34.6,35.4,34.6,35.7z"/>
<path class="st3" d="M34.6,33.5c-5.8,0-11.7,0-17.5,0c-2.6,0-5.1,0-7.7,0c-0.1,0-0.2,0-0.2,0c-0.1,0-0.1-0.1-0.1-0.2
	c0-0.1,0.1-0.2,0.1-0.2c0.1,0,0.2,0,0.3,0c8.4,0,16.7,0,25.1,0C34.6,33.3,34.6,33.4,34.6,33.5z"/>
<path class="st4" d="M35.2,32.3c0.1,0,0.1-0.1,0.2-0.1C35.4,32.3,35.3,32.3,35.2,32.3z"/>
</svg>
